<svg width="1351" height="240" viewBox="0 8 1351 240" fill="none" xmlns="http://www.w3.org/2000/svg">
  <rect x="8" y="8" width="240" height="240" rx="56" fill="var(--ui-primary, #6366f1)" /><path d="M38.5 175.6 c-1.5 -1 -1.9 -2.7 -1.9 -7.7 0 -5.5 0.4 -7.1 3.1 -11.4 1.8 -2.7 4.8 -6.3 6.8 -7.8 1.9 -1.5 3.5 -3.2 3.5 -3.8 0 -1.2 -5.8 -0.4 -11.5 1.6 -11.7 4.1 -16.3 3.7 -19 -1.5 -2.6 -5 -1.2 -8.4 4.2 -11 6.6 -3.1 10.4 -3.5 14.3 -1.5 2.1 1.1 4.1 1.4 5.9 0.9 1.4 -0.4 3.5 -0.9 4.6 -1.1 4.9 -0.9 12.3 -3.8 16 -6.3 13.7 -9.4 18.6 -11.7 34 -16 6.6 -1.9 11.9 -2.4 31.3 -3.1 l23.4 -0.8 8.4 -8.5 c5.7 -5.8 9.5 -8.8 11.9 -9.5 1.9 -0.5 5.8 -2.4 8.7 -4.1 4.5 -2.8 5.4 -3 7.5 -1.9 2 1.1 2.9 0.9 6.2 -0.9 6.4 -3.6 7.6 -2.5 4.4 4.3 l-1.7 3.5 3.3 4.1 c2.8 3.5 3.2 4.6 2.7 7.7 -0.3 2 0 5.1 0.6 6.8 1.8 5 -0.4 8.9 -6.3 11.6 -2.9 1.4 -4.5 2.6 -4 3.3 0.4 0.5 1.6 3.5 2.6 6.5 2.8 8.8 1.9 8.2 13.5 8.5 10.2 0.2 21.7 1.9 25.3 3.7 2 1 2.3 5.1 0.3 6.7 -0.7 0.6 -5.1 1.5 -9.7 2.1 -4.6 0.5 -12.7 1.9 -17.9 3 -8.5 1.8 -12.8 2 -42 1.9 -17.9 -0.1 -35 -0.3 -38 -0.5 -3 -0.1 -10.7 -0.6 -17.1 -1 -9.7 -0.6 -12.4 -0.4 -17 1.1 -7.2 2.3 -7.3 2.4 -5.5 4.4 2.2 2.5 3.1 7.8 1.6 9.6 -2.7 3.3 -9.3 1.2 -17.4 -5.5 -5.6 -4.7 -8.8 -5 -15.6 -1.7 -4.4 2.2 -4.5 2.3 -4.8 7.6 -0.2 3.7 -0.9 5.9 -2 6.8 -2.3 1.7 -10.3 1.6 -12.7 -0.1z" fill="#fff" /><path d="M315.74 203.87L315.74 203.87Q308.67 203.87 304.93 199.92Q301.18 195.97 301.18 188.90L301.18 188.90L301.18 68.46Q301.18 61.39 305.24 57.44Q309.30 53.49 316.37 53.49L316.37 53.49Q322.61 53.49 326.25 55.88Q329.89 58.27 333.01 64.10L333.01 64.10L377.52 145.42L422.03 64.10Q425.15 58.27 428.79 55.88Q432.43 53.49 438.46 53.49L438.46 53.49Q445.54 53.49 449.38 57.44Q453.23 61.39 453.23 68.46L453.23 68.46L453.23 188.90Q453.23 195.97 449.49 199.92Q445.74 203.87 438.67 203.87Q431.60 203.87 427.75 199.92Q423.90 195.97 423.90 188.90L423.90 188.90L423.90 112.77L389.79 173.92Q387.30 177.87 384.49 179.85Q381.68 181.82 377.10 181.82Q372.53 181.82 369.62 179.74Q366.70 177.66 364.42 173.92L364.42 173.92L330.30 113.39L330.30 188.90Q330.30 195.97 326.66 199.92Q323.02 203.87 315.74 203.87ZM529.36 204.29L529.36 204.29Q512.93 204.29 500.76 197.84Q488.59 191.39 481.94 179.33Q475.28 167.26 475.28 150.83L475.28 150.83Q475.28 138.56 479.02 128.78Q482.77 119.01 489.94 112.04Q497.12 105.07 507.10 101.43Q517.09 97.79 529.36 97.79L529.36 97.79Q545.79 97.79 557.96 104.24Q570.13 110.69 576.89 122.54Q583.65 134.40 583.65 150.83L583.65 150.83Q583.65 163.31 579.80 173.09Q575.95 182.86 568.88 189.94Q561.81 197.01 551.72 200.65Q541.63 204.29 529.36 204.29ZM529.36 180.78L529.36 180.78Q536.22 180.78 541.22 177.46Q546.21 174.13 549.12 167.58Q552.03 161.02 552.03 150.83L552.03 150.83Q552.03 135.65 545.79 128.47Q539.55 121.30 529.36 121.30L529.36 121.30Q522.70 121.30 517.61 124.42Q512.51 127.54 509.70 134.09Q506.90 140.64 506.90 150.83L506.90 150.83Q506.90 166.02 513.14 173.40Q519.38 180.78 529.36 180.78ZM643.55 203.87L643.55 203.87Q637.52 203.87 632.94 200.65Q628.37 197.42 625.66 190.98L625.66 190.98L594.26 118.59Q591.97 113.18 592.59 108.50Q593.22 103.82 597.06 101.02Q600.91 98.21 607.78 98.21L607.78 98.21Q613.39 98.21 616.93 100.81Q620.46 103.41 623.17 110.69L623.17 110.69L644.38 164.77L666.64 110.48Q669.55 103.41 673.09 100.81Q676.62 98.21 682.86 98.21L682.86 98.21Q688.27 98.21 691.50 101.02Q694.72 103.82 695.45 108.40Q696.18 112.98 693.68 118.38L693.68 118.38L661.65 190.98Q658.94 197.63 654.47 200.75Q650 203.87 643.55 203.87ZM727.17 203.87L727.17 203.87Q719.47 203.87 715.42 199.71Q711.36 195.55 711.36 187.86L711.36 187.86L711.36 69.50Q711.36 61.60 715.42 57.54Q719.47 53.49 727.17 53.49L727.17 53.49Q734.66 53.49 738.71 57.54Q742.77 61.60 742.77 69.50L742.77 69.50L742.77 142.10L743.18 142.10L773.34 108.61Q777.92 103.41 781.77 100.81Q785.62 98.21 792.06 98.21Q798.51 98.21 801.94 101.54Q805.38 104.86 805.48 109.54Q805.58 114.22 801.42 119.01L801.42 119.01L774.80 148.75L804.96 183.49Q808.91 188.27 808.39 193.06Q807.87 197.84 804.13 200.86Q800.38 203.87 794.56 203.87L794.56 203.87Q787.49 203.87 783.22 201.17Q778.96 198.46 774.59 192.85L774.59 192.85L743.18 157.90L742.77 157.90L742.77 187.86Q742.77 203.87 727.17 203.87Z" fill="currentColor" /><path d="M959.30 204.29L959.30 204.29Q935.58 204.29 918.74 194.93Q901.89 185.57 892.84 168.62Q883.79 151.66 883.79 128.58L883.79 128.58Q883.79 111.31 888.89 97.48Q893.98 83.65 903.76 73.77Q913.54 63.89 927.58 58.48Q941.62 53.07 959.30 53.07L959.30 53.07Q969.70 53.07 980.41 55.67Q991.12 58.27 999.02 63.06L999.02 63.06Q1004.22 65.97 1006.10 70.34Q1007.97 74.70 1007.24 79.07Q1006.51 83.44 1003.70 86.56Q1000.90 89.68 996.74 90.51Q992.58 91.34 987.38 88.64L987.38 88.64Q981.14 84.90 974.27 83.23Q967.41 81.57 960.34 81.57L960.34 81.57Q946.40 81.57 936.94 87.08Q927.47 92.59 922.69 102.99Q917.90 113.39 917.90 128.58L917.90 128.58Q917.90 143.55 922.69 154.16Q927.47 164.77 936.94 170.28Q946.40 175.79 960.34 175.79L960.34 175.79Q966.99 175.79 973.96 174.13Q980.93 172.46 987.38 168.93L987.38 168.93Q992.78 166.22 997.05 166.95Q1001.31 167.68 1004.12 170.70Q1006.93 173.71 1007.66 177.87Q1008.38 182.03 1006.72 186.19Q1005.06 190.35 1000.48 193.26L1000.48 193.26Q992.78 198.46 981.55 201.38Q970.32 204.29 959.30 204.29ZM1069.54 204.29L1069.54 204.29Q1053.10 204.29 1040.94 197.84Q1028.77 191.39 1022.11 179.33Q1015.46 167.26 1015.46 150.83L1015.46 150.83Q1015.46 138.56 1019.20 128.78Q1022.94 119.01 1030.12 112.04Q1037.30 105.07 1047.28 101.43Q1057.26 97.79 1069.54 97.79L1069.54 97.79Q1085.97 97.79 1098.14 104.24Q1110.30 110.69 1117.06 122.54Q1123.82 134.40 1123.82 150.83L1123.82 150.83Q1123.82 163.31 1119.98 173.09Q1116.13 182.86 1109.06 189.94Q1101.98 197.01 1091.90 200.65Q1081.81 204.29 1069.54 204.29ZM1069.54 180.78L1069.54 180.78Q1076.40 180.78 1081.39 177.46Q1086.38 174.13 1089.30 167.58Q1092.21 161.02 1092.21 150.83L1092.21 150.83Q1092.21 135.65 1085.97 128.47Q1079.73 121.30 1069.54 121.30L1069.54 121.30Q1062.88 121.30 1057.78 124.42Q1052.69 127.54 1049.88 134.09Q1047.07 140.64 1047.07 150.83L1047.07 150.83Q1047.07 166.02 1053.31 173.40Q1059.55 180.78 1069.54 180.78ZM1159.18 203.87L1159.18 203.87Q1151.28 203.87 1147.12 199.71Q1142.96 195.55 1142.96 187.86L1142.96 187.86L1142.96 114.02Q1142.96 106.32 1147.02 102.26Q1151.07 98.21 1158.35 98.21L1158.35 98.21Q1165.84 98.21 1169.79 102.26Q1173.74 106.32 1173.74 114.02L1173.74 114.02L1173.74 117.76Q1176.66 110.27 1182.69 105.49L1182.69 105.49Q1191.22 98.62 1204.74 97.79L1204.74 97.79Q1209.94 97.38 1212.74 100.39Q1215.55 103.41 1215.76 110.27L1215.76 110.27Q1216.18 116.72 1213.16 120.46Q1210.14 124.21 1203.07 125.04L1203.07 125.04L1198.29 125.46Q1186.43 126.50 1180.71 132.32Q1174.99 138.14 1174.99 149.17L1174.99 149.17L1174.99 187.86Q1174.99 195.55 1170.94 199.71Q1166.88 203.87 1159.18 203.87ZM1279.82 204.29L1279.82 204.29Q1261.73 204.29 1248.73 197.74Q1235.73 191.18 1228.76 179.22Q1221.79 167.26 1221.79 151.04L1221.79 151.04Q1221.79 135.23 1228.45 123.27Q1235.10 111.31 1247.06 104.55Q1259.02 97.79 1274.21 97.79L1274.21 97.79Q1285.23 97.79 1294.18 101.43Q1303.12 105.07 1309.57 111.83Q1316.02 118.59 1319.34 128.26Q1322.67 137.94 1322.67 149.79L1322.67 149.79Q1322.67 153.74 1320.18 155.72Q1317.68 157.70 1312.90 157.70L1312.90 157.70L1251.54 157.70Q1252.99 167.68 1258.61 173.30L1258.61 173.30Q1265.89 180.78 1280.45 180.78L1280.45 180.78Q1285.44 180.78 1291.89 179.54Q1298.34 178.29 1303.95 175.58L1303.95 175.58Q1308.74 173.30 1312.48 174.02Q1316.22 174.75 1318.30 177.46Q1320.38 180.16 1320.70 183.70Q1321.01 187.23 1319.14 190.66Q1317.26 194.10 1312.90 196.38L1312.90 196.38Q1305.82 200.34 1296.98 202.31Q1288.14 204.29 1279.82 204.29ZM1251.54 141.47L1251.54 141.47L1296.67 141.47Q1296.26 134.82 1294.18 130.03L1294.18 130.03Q1291.68 124.42 1287 121.50Q1282.32 118.59 1275.46 118.59L1275.46 118.59Q1267.76 118.59 1262.35 122.13Q1256.94 125.66 1254.03 132.32L1254.03 132.32Q1252.16 136.48 1251.54 141.47Z" fill="var(--ui-primary, #6366f1)" />
</svg>
